<?xml version="1.0" encoding="UTF-8" standalone="no"?>
<!-- Created with Inkscape (http://www.inkscape.org/) -->

<svg
   xmlns:dc="http://purl.org/dc/elements/1.1/"
   xmlns:cc="http://creativecommons.org/ns#"
   xmlns:rdf="http://www.w3.org/1999/02/22-rdf-syntax-ns#"
   xmlns:svg="http://www.w3.org/2000/svg"
   xmlns="http://www.w3.org/2000/svg"
   xmlns:sodipodi="http://sodipodi.sourceforge.net/DTD/sodipodi-0.dtd"
   xmlns:inkscape="http://www.inkscape.org/namespaces/inkscape"
   width="210mm"
   height="297mm"
   viewBox="0 0 744.09448819 1052.3622047"
   id="svg2"
   version="1.1"
   inkscape:version="0.91 r"
   inkscape:export-filename="/home/dana/Documents/Git/KillSwitch/Pics/killswitch.png"
   inkscape:export-xdpi="96"
   inkscape:export-ydpi="96"
   sodipodi:docname="new_rp.svg">
  <defs
     id="defs4" />
  <sodipodi:namedview
     id="base"
     pagecolor="#808080"
     bordercolor="#666666"
     borderopacity="1.0"
     inkscape:pageopacity="0"
     inkscape:pageshadow="2"
     inkscape:zoom="0.96568461"
     inkscape:cx="458.08947"
     inkscape:cy="771.49161"
     inkscape:document-units="px"
     inkscape:current-layer="layer1"
     showgrid="false"
     showguides="false"
     inkscape:guide-bbox="true">
    <sodipodi:guide
       position="262.49999,733.25895"
       orientation="0,1"
       id="guide4219" />
    <sodipodi:guide
       position="550.45144,709.66494"
       orientation="1,0"
       id="guide4229" />
    <sodipodi:guide
       position="488.31935,900.91527"
       orientation="0,1"
       id="guide4231" />
    <sodipodi:guide
       position="513.56051,529.09356"
       orientation="0,1"
       id="guide4233" />
  </sodipodi:namedview>
  <metadata
     id="metadata7">
    <rdf:RDF>
      <cc:Work
         rdf:about="">
        <dc:format>image/svg+xml</dc:format>
        <dc:type
           rdf:resource="http://purl.org/dc/dcmitype/StillImage" />
        <dc:title></dc:title>
      </cc:Work>
    </rdf:RDF>
  </metadata>
  <g
     inkscape:label="Layer 1"
     inkscape:groupmode="layer"
     id="layer1">
    <path
       style="color:#000000;font-style:normal;font-variant:normal;font-weight:normal;font-stretch:normal;font-size:medium;line-height:normal;font-family:sans-serif;text-indent:0;text-align:start;text-decoration:none;text-decoration-line:none;text-decoration-style:solid;text-decoration-color:#000000;letter-spacing:normal;word-spacing:normal;text-transform:none;direction:ltr;block-progression:tb;writing-mode:lr-tb;baseline-shift:baseline;text-anchor:start;white-space:normal;clip-rule:nonzero;display:inline;overflow:visible;visibility:visible;opacity:1;isolation:auto;mix-blend-mode:normal;color-interpolation:sRGB;color-interpolation-filters:linearRGB;solid-color:#000000;solid-opacity:1;fill:#ff0000;fill-opacity:1;fill-rule:evenodd;stroke:#ffffff;stroke-width:4;stroke-linecap:round;stroke-linejoin:miter;stroke-miterlimit:4;stroke-dasharray:none;stroke-dashoffset:0;stroke-opacity:1;color-rendering:auto;image-rendering:auto;shape-rendering:auto;text-rendering:auto;enable-background:accumulate"
       d="M 551.72656 161.96875 A 35.153517 35.153513 0 0 0 527.56445 172.60352 L 373.57227 326.59375 A 35.153517 35.153513 0 0 0 365.33594 364.38477 A 37.503752 37.503748 0 0 0 375.91211 398.72266 L 525.1543 547.96484 A 37.503752 37.503748 0 1 0 578.1875 494.93164 L 441.42188 358.16602 L 577.27344 222.3125 A 35.153517 35.153513 0 0 0 551.72656 161.96875 z "
       transform="scale(0.93749995,0.93750006)"
       id="path4221" />
    <path
       style="fill:#010101;stroke:#ffffff;stroke-width:3.75000001;stroke-miterlimit:4;stroke-dasharray:none"
       d="M 359.96544,899.90241 C 310.53883,897.63091 266.76555,886.3759 224.67746,865.11705 192.76652,848.99873 165.2192,829.07019 140.09253,803.9258 85.550601,749.34544 52.230761,678.20271 45.377041,601.69441 c -1.71274,-19.11945 -1.71656,-40.02 -0.0109,-59.29779 7.93328,-89.66077 53.17474,-172.65758 124.628349,-228.63447 8.13609,-6.37382 20.76538,-15.52746 22.88787,-16.58898 2.7707,-1.38573 6.56122,-2.59121 9.75829,-3.10339 3.58933,-0.57503 10.85443,-0.25014 14.088,0.63 4.7582,1.29514 10.12206,4.2082 13.73755,7.46075 7.14636,6.42897 11.06342,16.80877 9.95174,26.37105 -1.18332,10.17859 -6.50392,18.88071 -15.08378,24.67035 -2.6709,1.8023 -17.20688,13.10007 -21.64148,16.82036 -9.59615,8.05042 -21.51829,19.6411 -28.88438,28.08133 -39.78334,45.58461 -62.0181,99.84954 -65.41432,159.64658 -0.4763,8.38623 -0.20991,28.52539 0.47824,36.15442 3.17248,35.17094 12.10821,66.77205 27.37631,96.81597 31.71796,62.41326 86.53655,109.56696 152.60876,131.27062 46.81977,15.37953 97.6133,17.27795 145.46238,5.43667 89.45426,-22.13734 161.14982,-89.95853 188.21161,-178.04087 5.63761,-18.34973 9.1276,-36.84931 10.88672,-57.70804 0.55397,-6.56858 0.55667,-32.81661 0.004,-39.10793 -1.56788,-17.84883 -3.98647,-32.4489 -7.74264,-46.73875 -8.80361,-33.49237 -23.48265,-63.90905 -44.0703,-91.31884 -13.9434,-18.56383 -29.96436,-34.96981 -48.08888,-49.24459 -4.57044,-3.59966 -15.8842,-12.11566 -17.35367,-13.06231 -4.4556,-2.87037 -8.20376,-7.15406 -10.62369,-12.14165 -2.28056,-4.7004 -2.89608,-7.16146 -3.0961,-12.37928 -0.25446,-6.63822 0.58372,-10.78546 3.28144,-16.23608 3.32268,-6.71342 8.11165,-11.34276 15.194,-14.68756 4.3832,-2.07008 7.2003,-2.72603 12.53723,-2.91926 6.65846,-0.24107 11.56056,0.73344 16.7532,3.33045 2.12248,1.06152 14.75179,10.21516 22.88786,16.58898 34.52218,27.04474 63.55348,61.01168 84.80991,99.22856 22.09683,39.72788 35.70918,83.96965 39.81574,129.40591 1.66978,18.47515 1.67054,39.92372 0.003,58.97984 -5.58824,63.82627 -29.99371,124.69308 -70.24536,175.1908 -15.85956,19.89662 -34.79886,38.61164 -55.04951,54.39754 -37.21275,29.00832 -81.05991,49.98165 -126.50852,60.51252 -17.36006,4.02252 -33.18204,6.39205 -52.30286,7.83306 -6.08316,0.45843 -29.03283,0.85049 -34.65661,0.59203 z m 8.7851,-375.96613 c -7.06366,-0.82003 -13.60059,-4.06488 -18.78189,-9.32308 -5.29231,-5.37085 -8.63069,-11.97275 -9.86806,-19.51486 -0.46149,-2.81287 -0.49945,-17.34153 -0.41389,-158.41578 l 0.0942,-155.31889 0.71152,-2.63816 c 3.46702,-12.85513 12.45498,-22.36732 24.15204,-25.56075 3.69242,-1.00808 10.95937,-1.00852 14.71596,-9.1e-4 12.6648,3.39704 22.44228,14.57961 24.65023,28.19262 0.40383,2.48979 0.46548,23.22363 0.46659,156.95368 0,169.60288 0.15767,156.32462 -1.91269,162.50428 -3.0875,9.21554 -9.24884,16.30937 -17.64,20.30964 -3.6357,1.73324 -5.80364,2.35277 -9.85646,2.81662 -3.14415,0.35986 -3.18005,0.35983 -6.31755,-0.004 z"
       id="path4161"
       inkscape:connector-curvature="0" />
  </g>
</svg>
